# xmcd
#
# Track frame offsets:
#	150
#	18195
#	29242
#	41722
#	56189
#	72096
#	85858
#	100595
#	112887
#	124707
#	139392
#	153244
#	167839
#	182141
#
# Disc length: 2629 seconds
#
# Revision: 0
# Processed by: cddbd v1.5.2PL0 Copyright (c) Steve Scherf et al.
# Submitted via: EasyCDDAExtractor 16.0.6.1
#
DISCID=bc0a430e
DTITLE=Συλλογικός δίσκος - Τα ινδοπρεπή 1
DYEAR=1995
DGENRE=Λαϊκή
TTITLE0=Πάλλα Βούλα - Σκληρή είναι η ζωή μας [Ali Naushad-Β. Πάλλα]
TTITLE1=Κύπριος Στράτος - Ο ουρανός αν γκρεμιστεί [Βαγγ. Σούκας]
TTITLE2=Σιδέρη Σοφία - Σ' είχα και σ' έχασα [Γιώργος Μαριολάς-Σαράντης Τσιλιβα
TTITLE2=ρδής]
TTITLE3=Καναρίδης Μανώλης - Τα παράπονά μου [Γιάννης Πολυκανδριώτης]
TTITLE4=Σακελλαρίου Ρίτα-Κύπριος Στράτος - Φαρμάκι λίγο-λίγο [Βαγγ. Σούκας]
TTITLE5=Μπαρμπεράκης Μανώλης-Ζανέτ Λίτσα - Δώσε μου πικρό φαρμάκι [Βαγγ. Σούκα
TTITLE5=ς]
TTITLE6=Σιδέρη Σοφία-Μπαρμπεράκης Μανώλης - Εσένα θέλω μόνο [Βαγγ. Σούκας]
TTITLE7=Πάλλα Βούλα - Σαν πουλί κυνηγημένο [Β. Πάλλα]
TTITLE8=Κύπριος Στράτος - Μην κλαις για μένα [Δημ. Ευσταθίου]
TTITLE9=Ντάλμα Ρένα - Πες μου, πώς βαστάς καρδιά μου [Φώτης Σούκας]
TTITLE10=Φώσκολος Πάνος - Κλάψε καρδιά μου, κλάψε [Λ. Κέκεσης-Κ. Μάνεσης]
TTITLE11=Κύπριος Στράτος - Τό 'ξερα, πως θα μού φύγεις [Βασ. Τσιτσάνης]
TTITLE12=Κάλη Βεατρίκη - Πάρε πίσω την καρδιά σου [Γιώργος Μαριολάς-Κώστας Δελ
TTITLE12=λαγραμμάτης]
TTITLE13=Φώσκολος Πάνος-Κοκόση Μαριάννα - Σε είδανε και χθες [Βαγγ. Σούκας]
EXTD=
EXTT0=
EXTT1=
EXTT2=
EXTT3=
EXTT4=
EXTT5=
EXTT6=
EXTT7=
EXTT8=
EXTT9=
EXTT10=
EXTT11=
EXTT12=
EXTT13=
PLAYORDER=
